HIERARCHY
ROOT Hips
{
 OFFSET 0.000000 0.000000 0.000000
 CHANNELS 6 Xposition Yposition Zposition Yrotation Xrotation Zrotation
 JOINT Chest
 {
  OFFSET 0.000000 10.503509 -1.167057
  CHANNELS 3 Yrotation Xrotation Zrotation
  JOINT Chest2
  {
   OFFSET 0.000000 11.606230 0.000000
   CHANNELS 3 Yrotation Xrotation Zrotation
   JOINT Chest3
   {
    OFFSET 0.000000 10.598749 -0.014629
    CHANNELS 3 Yrotation Xrotation Zrotation
    JOINT Chest4
    {
     OFFSET 0.000000 10.586916 -0.014644
     CHANNELS 3 Yrotation Xrotation Zrotation
     JOINT Neck
     {
      OFFSET 0.000000 15.278769 0.000000
      CHANNELS 3 Yrotation Xrotation Zrotation
      JOINT Head
      {
       OFFSET 0.000000 10.382624 -0.010304
       CHANNELS 3 Yrotation Xrotation Zrotation
       End Site
       {
        OFFSET 0.000000 19.690639 -0.007003
       }
      }
     }
     JOINT RightCollar
     {
      OFFSET -3.656259 8.573257 0.000000
      CHANNELS 3 Yrotation Xrotation Zrotation
      JOINT RightShoulder
      {
       OFFSET -17.084769 0.000000 0.000000
       CHANNELS 3 Yrotation Xrotation Zrotation
       JOINT RightElbow
       {
        OFFSET -32.974620 0.000000 0.000000
        CHANNELS 3 Yrotation Xrotation Zrotation
        JOINT RightWrist
        {
         OFFSET -26.972293 0.000000 0.000000
         CHANNELS 3 Yrotation Xrotation Zrotation
         End Site
         {
          OFFSET -20.184599 0.000000 0.000000
         }
        }
       }
      }
     }
     JOINT LeftCollar
     {
      OFFSET 3.656259 8.573257 0.000000
      CHANNELS 3 Yrotation Xrotation Zrotation
      JOINT LeftShoulder
      {
       OFFSET 17.084769 0.000000 0.000000
       CHANNELS 3 Yrotation Xrotation Zrotation
       JOINT LeftElbow
       {
        OFFSET 32.974620 0.000000 0.000000
        CHANNELS 3 Yrotation Xrotation Zrotation
        JOINT LeftWrist
        {
         OFFSET 26.972293 0.000000 0.000000
         CHANNELS 3 Yrotation Xrotation Zrotation
         End Site
         {
          OFFSET 20.184599 0.000000 0.000000
         }
        }
       }
      }
     }
    }
   }
  }
 }
 JOINT RightHip
 {
  OFFSET -8.694749 0.036960 -0.004107
  CHANNELS 3 Yrotation Xrotation Zrotation
  JOINT RightKnee
  {
   OFFSET 0.000000 -44.282926 -0.003458
   CHANNELS 3 Yrotation Xrotation Zrotation
   JOINT RightAnkle
   {
    OFFSET 0.000000 -43.246824 0.044986
    CHANNELS 3 Yrotation Xrotation Zrotation
    JOINT RightToe
    {
     OFFSET 0.000000 -8.545248 17.800930
     CHANNELS 3 Yrotation Xrotation Zrotation
     End Site
     {
      OFFSET 0.000000 -5.484847 5.975775
     }
    }
   }
  }
 }
 JOINT LeftHip
 {
  OFFSET 8.694749 0.034653 -0.003850
  CHANNELS 3 Yrotation Xrotation Zrotation
  JOINT LeftKnee
  {
   OFFSET 0.000000 -44.282926 -0.003458
   CHANNELS 3 Yrotation Xrotation Zrotation
   JOINT LeftAnkle
   {
    OFFSET 0.000000 -43.246824 0.044986
    CHANNELS 3 Yrotation Xrotation Zrotation
    JOINT LeftToe
    {
     OFFSET 0.000000 -8.545248 17.800930
     CHANNELS 3 Yrotation Xrotation Zrotation
     End Site
     {
      OFFSET 0.000000 -5.484847 5.975775
     }
    }
   }
  }
 }
}
MOTION
Frames: 7
Frame Time: 0.004167
15.402455 103.824074 32.760962 3.819504 4.703371 -3.894284 -1.218781 0.163781 2.719791 -0.666005 -5.759390 1.215374 -0.662767 0.060651 1.147770 -0.409270 5.880266 0.865402 -1.057024 20.135392 -1.338813 -1.520725 1.360148 -2.119468 2.659961 -1.659403 10.009828 6.380934 -5.827035 80.930420 12.102061 6.531546 -0.937335 -5.957538 8.516248 -3.352480 -3.073705 -4.434206 -11.056336 -12.583920 1.456846 -82.581643 -17.689655 5.857631 -0.174136 11.009044 25.539143 -3.107678 4.142514 -27.843087 6.219340 2.099410 46.526605 5.618672 -5.574158 -26.049110 -0.716855 0.000000 0.000000 -0.000000 1.150154 -11.842407 7.972280 -0.498173 34.659624 0.173840 -8.799910 -0.416281 -9.646002 -0.419194 -16.910501 9.248053
15.299803 103.993124 32.890698 3.826672 4.686713 -3.956360 -1.153834 0.186518 2.749469 -0.638632 -5.748949 1.228643 -0.635545 0.071124 1.163817 -0.387644 5.888136 0.877523 -1.080183 20.129664 -1.329674 -1.565645 1.349344 -2.095788 2.689973 -1.726784 9.975059 6.548632 -6.123684 80.806073 12.380771 6.633777 -0.740867 -5.972634 8.555560 -3.350339 -3.061549 -4.418105 -11.020470 -12.547522 1.706828 -82.844102 -17.235279 5.967914 0.151652 11.311792 25.938653 -3.337723 4.158700 -27.453148 6.333865 1.834887 45.931462 5.434859 -5.444386 -25.838738 -0.727633 -0.000000 0.000000 0.000000 0.963057 -12.604323 8.194320 -0.558812 36.044915 -0.018943 -8.882916 0.517160 -9.302346 -0.163123 -16.231529 8.995184
15.201490 104.162809 33.019054 3.824323 4.667061 -4.013210 -1.084005 0.210501 2.776693 -0.608985 -5.737913 1.240807 -0.606060 0.082192 1.178990 -0.364389 5.896461 0.888984 -1.103654 20.123255 -1.320588 -1.611121 1.337289 -2.072104 2.720698 -1.793676 9.938806 6.715080 -6.417909 80.674881 12.670538 6.734121 -0.538882 -5.985118 8.590445 -3.347404 -3.044075 -4.400700 -10.984257 -12.503762 1.960936 -83.101150 -16.809385 6.065420 0.464919 11.602162 26.321144 -3.549658 4.179457 -27.059537 6.442366 1.577692 45.331470 5.252596 -5.308692 -25.620857 -0.736070 -0.000000 -0.000000 0.000000 0.760138 -13.365174 8.411839 -0.599163 37.444001 -0.211470 -8.937544 1.414619 -8.970854 0.080579 -15.489288 8.702407
15.107791 104.332305 33.146311 3.809664 4.644320 -4.064002 -1.008353 0.235251 2.800980 -0.576622 -5.726490 1.251648 -0.573872 0.093649 1.193115 -0.339187 5.905086 0.899656 -1.127273 20.116882 -1.311772 -1.656796 1.325315 -2.048861 2.752917 -1.858793 9.902505 6.881358 -6.709184 80.534460 12.970925 6.831804 -0.330833 -5.993867 8.618035 -3.345110 -3.020000 -4.381262 -10.948117 -12.452467 2.218904 -83.348825 -16.412090 6.150624 0.760772 11.873177 26.678265 -3.741603 4.206508 -26.663434 6.545617 1.334060 44.729121 5.073224 -5.171310 -25.397177 -0.742311 0.000000 0.000000 -0.000000 0.546228 -14.118630 8.624134 -0.608713 38.849031 -0.395485 -8.967704 2.256568 -8.670797 0.301833 -14.704942 8.373183
15.018987 104.500792 33.272752 3.779899 4.618393 -4.107904 -0.925942 0.260293 2.821846 -0.541102 -5.714885 1.260946 -0.538540 0.105290 1.206018 -0.311721 5.913859 0.909407 -1.150880 20.111263 -1.303441 -1.702311 1.314752 -2.026504 2.787410 -1.920858 9.867601 7.048579 -6.996943 80.382418 13.281502 6.926034 -0.116205 -5.997794 8.635494 -3.344976 -2.988042 -4.359064 -10.912466 -12.393413 2.480438 -83.583158 -16.043462 6.224142 1.034323 12.117692 27.001597 -3.912085 4.241568 -26.266017 6.644373 1.110001 44.126944 4.897759 -5.036437 -25.169426 -0.746546 0.000000 -0.000000 -0.000000 0.326292 -14.858412 8.830376 -0.575932 40.252239 -0.561430 -8.978576 3.023449 -8.421357 0.492005 -13.899875 8.010894
14.935355 104.667449 33.398661 3.732231 4.589185 -4.144076 -0.835839 0.285157 2.838804 -0.501981 -5.703301 1.268483 -0.499624 0.116910 1.217525 -0.281675 5.922628 0.918104 -1.174311 20.107118 -1.295806 -1.747305 1.306933 -2.005473 2.824954 -1.978604 9.835546 7.217890 -7.280578 80.216356 13.601848 7.016006 0.105489 -5.995841 8.640023 -3.348609 -2.946923 -4.333374 -10.877715 -12.326324 2.745202 -83.800169 -15.703510 6.286714 1.280694 12.328372 27.282691 -4.060017 4.286351 -25.868463 6.739369 0.911330 43.527505 4.726910 -4.908233 -24.939348 -0.749010 0.000000 -0.000000 0.000000 0.105426 -15.578284 9.029591 -0.488136 41.645926 -0.698333 -8.976438 3.695753 -8.241729 0.644045 -13.095635 7.618714
14.857174 104.831453 33.524320 3.663864 4.556606 -4.171673 -0.737108 0.309379 2.851366 -0.458821 -5.691940 1.274039 -0.456687 0.128308 1.227462 -0.248732 5.931243 0.925616 -1.197405 20.105167 -1.289078 -1.791415 1.303191 -1.986208 2.866324 -2.030773 9.807803 7.390467 -7.559432 80.033865 13.931548 7.100903 0.334705 -5.986984 8.628859 -3.357704 -2.895365 -4.303458 -10.844267 -12.250869 3.012820 -83.995866 -15.392174 6.339178 1.495023 12.497672 27.513104 -4.184653 4.342569 -25.471944 6.831327 0.743685 42.933400 4.561103 -4.790822 -24.708701 -0.749983 0.000000 0.000000 -0.000000 -0.111138 -16.272057 9.220652 -0.331355 43.022411 -0.793707 -8.968422 4.254105 -8.151197 0.752506 -12.313848 7.199527
